STARTFONT 2.1
FONT -sun-timmons-medium-r-normal--12-120-75-75-p-68-adobe-fontspecific
SIZE 12 75 75
FONTBOUNDINGBOX 14 15 -2 -3

STARTPROPERTIES 28
FOUNDRY "sun"
FAMILY_NAME "timmons"
WEIGHT_NAME "medium"
SLANT "r"
SETWIDTH_NAME "normal"
ADD_STYLE_NAME ""
PIXEL_SIZE 12
POINT_SIZE 120
RESOLUTION_X 75
RESOLUTION_Y 75
SPACING "p"
AVERAGE_WIDTH 68
CHARSET_REGISTRY "adobe"
CHARSET_ENCODING "fontspecific"
COPYRIGHT "© 1999 Sun Microsystems, Inc."
RAW_PIXELSIZE 1000
RAW_POINTSIZE 964
RAW_ASCENT 932
RAW_DESCENT 196
RAW_AVERAGE_WIDTH 5454
FACE_NAME "TimmonsNormalnsB5"
_XMBDFED_INFO "Edited with xmbdfed 2.4."
WEIGHT 10
X_HEIGHT -1
QUAD_WIDTH 7
DEFAULT_CHAR 4
FONT_DESCENT 3
FONT_ASCENT 12
ENDPROPERTIES

CHARS 214

STARTCHAR char32
ENCODING 32
SWIDTH 28 0
DWIDTH 4 0
BBX 0 0 0 0
BITMAP
ENDCHAR

STARTCHAR char33
ENCODING 33
SWIDTH 21 0
DWIDTH 3 0
BBX 2 9 1 0
BITMAP
40
40
40
40
40
40
40
00
40
ENDCHAR

STARTCHAR char34
ENCODING 34
SWIDTH 35 0
DWIDTH 5 0
BBX 5 4 0 5
BITMAP
D8
48
D8
90
ENDCHAR

STARTCHAR char35
ENCODING 35
SWIDTH 50 0
DWIDTH 7 0
BBX 6 9 0 0
BITMAP
28
28
FC
28
28
78
C8
48
50
ENDCHAR

STARTCHAR char36
ENCODING 36
SWIDTH 43 0
DWIDTH 6 0
BBX 6 11 0 -1
BITMAP
10
7C
54
54
70
38
18
9C
9C
F8
10
ENDCHAR

STARTCHAR char37
ENCODING 37
SWIDTH 64 0
DWIDTH 9 0
BBX 9 9 0 0
BITMAP
4400
A400
A400
AB00
AC80
5480
1480
2480
2300
ENDCHAR

STARTCHAR char38
ENCODING 38
SWIDTH 64 0
DWIDTH 9 0
BBX 9 9 0 0
BITMAP
1C00
2400
2400
3B80
7200
5A00
8C00
CC80
7300
ENDCHAR

STARTCHAR char39
ENCODING 39
SWIDTH 21 0
DWIDTH 3 0
BBX 2 3 0 6
BITMAP
40
80
C0
ENDCHAR

STARTCHAR char40
ENCODING 40
SWIDTH 28 0
DWIDTH 4 0
BBX 3 11 1 -2
BITMAP
40
40
40
80
80
80
80
80
40
40
40
ENDCHAR

STARTCHAR char41
ENCODING 41
SWIDTH 28 0
DWIDTH 4 0
BBX 3 11 0 -2
BITMAP
40
40
20
20
20
20
20
20
20
40
40
ENDCHAR

STARTCHAR char42
ENCODING 42
SWIDTH 35 0
DWIDTH 5 0
BBX 5 5 0 4
BITMAP
20
F8
20
F8
20
ENDCHAR

STARTCHAR char43
ENCODING 43
SWIDTH 57 0
DWIDTH 8 0
BBX 8 7 0 0
BITMAP
10
10
10
FF
10
10
10
ENDCHAR

STARTCHAR char44
ENCODING 44
SWIDTH 21 0
DWIDTH 3 0
BBX 3 3 0 -2
BITMAP
60
20
40
ENDCHAR

STARTCHAR char45
ENCODING 45
SWIDTH 28 0
DWIDTH 4 0
BBX 3 1 0 3
BITMAP
E0
ENDCHAR

STARTCHAR char46
ENCODING 46
SWIDTH 21 0
DWIDTH 3 0
BBX 1 1 1 0
BITMAP
80
ENDCHAR

STARTCHAR char47
ENCODING 47
SWIDTH 35 0
DWIDTH 5 0
BBX 5 9 0 0
BITMAP
08
10
10
20
20
20
40
40
80
ENDCHAR

STARTCHAR char48
ENCODING 48
SWIDTH 43 0
DWIDTH 6 0
BBX 5 9 0 0
BITMAP
70
48
88
88
88
88
88
48
70
ENDCHAR

STARTCHAR char49
ENCODING 49
SWIDTH 43 0
DWIDTH 6 0
BBX 4 9 1 0
BITMAP
40
40
40
40
40
40
40
40
F0
ENDCHAR

STARTCHAR char50
ENCODING 50
SWIDTH 43 0
DWIDTH 6 0
BBX 6 9 0 0
BITMAP
70
98
88
08
10
10
20
44
F8
ENDCHAR

STARTCHAR char51
ENCODING 51
SWIDTH 43 0
DWIDTH 6 0
BBX 5 9 0 0
BITMAP
70
50
10
10
30
08
08
10
E0
ENDCHAR

STARTCHAR char52
ENCODING 52
SWIDTH 43 0
DWIDTH 6 0
BBX 5 9 0 0
BITMAP
10
10
30
50
50
90
F8
10
10
ENDCHAR

STARTCHAR char53
ENCODING 53
SWIDTH 43 0
DWIDTH 6 0
BBX 5 9 0 0
BITMAP
38
40
40
70
18
08
08
10
E0
ENDCHAR

STARTCHAR char54
ENCODING 54
SWIDTH 43 0
DWIDTH 6 0
BBX 5 9 0 0
BITMAP
10
20
40
70
C8
88
88
C8
70
ENDCHAR

STARTCHAR char55
ENCODING 55
SWIDTH 43 0
DWIDTH 6 0
BBX 5 9 0 0
BITMAP
78
88
08
08
10
10
10
20
20
ENDCHAR

STARTCHAR char56
ENCODING 56
SWIDTH 43 0
DWIDTH 6 0
BBX 5 9 0 0
BITMAP
70
C8
C8
70
30
58
88
C8
70
ENDCHAR

STARTCHAR char57
ENCODING 57
SWIDTH 43 0
DWIDTH 6 0
BBX 5 9 0 0
BITMAP
70
88
88
88
C8
78
18
10
20
ENDCHAR

STARTCHAR char58
ENCODING 58
SWIDTH 21 0
DWIDTH 3 0
BBX 1 6 1 0
BITMAP
80
00
00
00
00
80
ENDCHAR

STARTCHAR char59
ENCODING 59
SWIDTH 21 0
DWIDTH 3 0
BBX 2 8 1 -2
BITMAP
C0
00
00
00
00
C0
40
40
ENDCHAR

STARTCHAR char60
ENCODING 60
SWIDTH 50 0
DWIDTH 7 0
BBX 6 6 0 0
BITMAP
0C
30
C0
60
18
04
ENDCHAR

STARTCHAR char61
ENCODING 61
SWIDTH 57 0
DWIDTH 8 0
BBX 8 3 0 2
BITMAP
FF
00
FF
ENDCHAR

STARTCHAR char62
ENCODING 62
SWIDTH 50 0
DWIDTH 7 0
BBX 7 6 0 0
BITMAP
E0
18
06
0C
30
C0
ENDCHAR

STARTCHAR char63
ENCODING 63
SWIDTH 35 0
DWIDTH 5 0
BBX 4 9 1 0
BITMAP
60
90
90
30
20
40
40
00
40
ENDCHAR

STARTCHAR char64
ENCODING 64
SWIDTH 27 0
DWIDTH 14 0
BBX 9 9 2 0
BITMAP
3E00
4100
DE80
A680
A480
A580
DE00
4100
3E00
ENDCHAR

STARTCHAR char65
ENCODING 65
SWIDTH 64 0
DWIDTH 9 0
BBX 7 9 1 0
BITMAP
10
10
38
28
28
7C
4C
46
86
ENDCHAR

STARTCHAR char66
ENCODING 66
SWIDTH 57 0
DWIDTH 8 0
BBX 7 9 0 0
BITMAP
FC
46
42
46
7C
46
42
42
FC
ENDCHAR

STARTCHAR char67
ENCODING 67
SWIDTH 64 0
DWIDTH 9 0
BBX 7 9 1 0
BITMAP
3E
42
42
80
80
80
80
42
3C
ENDCHAR

STARTCHAR char68
ENCODING 68
SWIDTH 71 0
DWIDTH 10 0
BBX 9 9 0 0
BITMAP
FE00
4300
4180
4080
4080
4080
4180
4300
FE00
ENDCHAR

STARTCHAR char69
ENCODING 69
SWIDTH 57 0
DWIDTH 8 0
BBX 8 9 0 0
BITMAP
7E
62
60
64
7C
44
40
41
FE
ENDCHAR

STARTCHAR char70
ENCODING 70
SWIDTH 57 0
DWIDTH 8 0
BBX 8 9 0 0
BITMAP
FE
41
40
42
7E
42
40
40
70
ENDCHAR

STARTCHAR char71
ENCODING 71
SWIDTH 71 0
DWIDTH 10 0
BBX 9 9 0 0
BITMAP
3F00
6100
C100
8000
8380
8100
C100
6100
3E00
ENDCHAR

STARTCHAR char72
ENCODING 72
SWIDTH 71 0
DWIDTH 10 0
BBX 9 9 0 0
BITMAP
F380
6100
6100
6100
7F00
4100
4100
4100
E780
ENDCHAR

STARTCHAR char73
ENCODING 73
SWIDTH 28 0
DWIDTH 4 0
BBX 4 9 0 0
BITMAP
F0
20
20
20
20
20
20
20
E0
ENDCHAR

STARTCHAR char74
ENCODING 74
SWIDTH 35 0
DWIDTH 5 0
BBX 5 9 0 0
BITMAP
78
10
10
10
10
10
10
10
E0
ENDCHAR

STARTCHAR char75
ENCODING 75
SWIDTH 64 0
DWIDTH 9 0
BBX 9 9 0 0
BITMAP
F780
6400
4800
4800
7000
7800
6C00
6600
E780
ENDCHAR

STARTCHAR char76
ENCODING 76
SWIDTH 57 0
DWIDTH 8 0
BBX 8 9 0 0
BITMAP
70
40
40
40
40
40
41
41
FE
ENDCHAR

STARTCHAR char77
ENCODING 77
SWIDTH 13 0
DWIDTH 12 0
BBX 11 9 0 0
BITMAP
E060
60C0
7140
5140
5140
4A40
4A40
4C40
44C0
ENDCHAR

STARTCHAR char78
ENCODING 78
SWIDTH 71 0
DWIDTH 10 0
BBX 9 9 0 0
BITMAP
C380
6100
7100
5900
4D00
4500
4300
4300
C100
ENDCHAR

STARTCHAR char79
ENCODING 79
SWIDTH 64 0
DWIDTH 9 0
BBX 7 9 1 0
BITMAP
38
44
82
82
82
82
82
44
38
ENDCHAR

STARTCHAR char80
ENCODING 80
SWIDTH 50 0
DWIDTH 7 0
BBX 7 9 0 0
BITMAP
FC
46
42
46
7C
60
60
60
E0
ENDCHAR

STARTCHAR char81
ENCODING 81
SWIDTH 64 0
DWIDTH 9 0
BBX 8 12 1 -3
BITMAP
38
44
82
82
82
82
82
44
28
18
0C
03
ENDCHAR

STARTCHAR char82
ENCODING 82
SWIDTH 64 0
DWIDTH 9 0
BBX 9 9 0 0
BITMAP
FC00
4600
4200
4600
7800
6C00
6400
6200
E180
ENDCHAR

STARTCHAR char83
ENCODING 83
SWIDTH 50 0
DWIDTH 7 0
BBX 5 9 1 0
BITMAP
70
88
88
C0
30
18
88
88
F0
ENDCHAR

STARTCHAR char84
ENCODING 84
SWIDTH 57 0
DWIDTH 8 0
BBX 8 9 0 0
BITMAP
FF
91
10
10
10
10
10
10
18
ENDCHAR

STARTCHAR char85
ENCODING 85
SWIDTH 71 0
DWIDTH 10 0
BBX 9 9 0 0
BITMAP
F380
4100
4100
4100
4100
4100
4100
6300
3E00
ENDCHAR

STARTCHAR char86
ENCODING 86
SWIDTH 64 0
DWIDTH 9 0
BBX 9 9 0 0
BITMAP
F380
6100
2100
3200
1200
1400
1C00
0800
0800
ENDCHAR

STARTCHAR char87
ENCODING 87
SWIDTH 20 0
DWIDTH 13 0
BBX 13 9 -1 0
BITMAP
F7B8
6310
3110
3320
1AA0
1AA0
0CC0
0840
0840
ENDCHAR

STARTCHAR char88
ENCODING 88
SWIDTH 64 0
DWIDTH 9 0
BBX 9 9 0 0
BITMAP
F180
2200
3400
1400
1800
1C00
1600
2200
4700
ENDCHAR

STARTCHAR char89
ENCODING 89
SWIDTH 64 0
DWIDTH 9 0
BBX 9 9 0 0
BITMAP
F180
6100
3200
1400
1800
0800
0800
0800
3C00
ENDCHAR

STARTCHAR char90
ENCODING 90
SWIDTH 57 0
DWIDTH 8 0
BBX 8 9 0 0
BITMAP
7E
46
0C
08
10
30
60
41
FE
ENDCHAR

STARTCHAR char91
ENCODING 91
SWIDTH 21 0
DWIDTH 3 0
BBX 2 11 1 -2
BITMAP
C0
80
80
80
80
80
80
80
80
80
C0
ENDCHAR

STARTCHAR char92
ENCODING 92
SWIDTH 28 0
DWIDTH 4 0
BBX 4 9 0 0
BITMAP
80
80
40
40
40
20
20
20
20
ENDCHAR

STARTCHAR char93
ENCODING 93
SWIDTH 21 0
DWIDTH 3 0
BBX 3 11 0 -2
BITMAP
E0
20
20
20
20
20
20
20
20
20
E0
ENDCHAR

STARTCHAR char94
ENCODING 94
SWIDTH 0 0
DWIDTH 0 0
BBX 4 1 -2 10
BITMAP
60
ENDCHAR

STARTCHAR char95
ENCODING 95
SWIDTH 50 0
DWIDTH 7 0
BBX 7 1 0 -2
BITMAP
FE
ENDCHAR

STARTCHAR char96
ENCODING 96
SWIDTH 0 0
DWIDTH 0 0
BBX 2 2 -2 7
BITMAP
40
40
ENDCHAR

STARTCHAR char97
ENCODING 97
SWIDTH 43 0
DWIDTH 6 0
BBX 6 6 0 0
BITMAP
70
D0
10
70
90
F8
ENDCHAR

STARTCHAR char98
ENCODING 98
SWIDTH 50 0
DWIDTH 7 0
BBX 6 9 0 0
BITMAP
40
40
40
78
4C
44
44
44
78
ENDCHAR

STARTCHAR char99
ENCODING 99
SWIDTH 35 0
DWIDTH 5 0
BBX 5 6 0 0
BITMAP
70
88
80
80
C8
70
ENDCHAR

STARTCHAR char100
ENCODING 100
SWIDTH 50 0
DWIDTH 7 0
BBX 6 8 0 0
BITMAP
08
08
78
C8
88
88
C8
7C
ENDCHAR

STARTCHAR char101
ENCODING 101
SWIDTH 43 0
DWIDTH 6 0
BBX 6 6 0 0
BITMAP
70
88
F8
80
CC
70
ENDCHAR

STARTCHAR char102
ENCODING 102
SWIDTH 28 0
DWIDTH 4 0
BBX 5 10 0 0
BITMAP
18
68
40
40
70
40
40
40
40
E0
ENDCHAR

STARTCHAR char103
ENCODING 103
SWIDTH 43 0
DWIDTH 6 0
BBX 6 8 0 -2
BITMAP
38
48
48
30
40
7C
44
78
ENDCHAR

STARTCHAR char104
ENCODING 104
SWIDTH 50 0
DWIDTH 7 0
BBX 7 9 0 0
BITMAP
40
40
40
7C
44
44
44
44
CC
ENDCHAR

STARTCHAR char105
ENCODING 105
SWIDTH 21 0
DWIDTH 3 0
BBX 3 9 0 0
BITMAP
40
00
00
40
40
40
40
40
C0
ENDCHAR

STARTCHAR char106
ENCODING 106
SWIDTH 21 0
DWIDTH 3 0
BBX 3 11 -1 -2
BITMAP
20
00
00
60
20
20
20
20
20
20
C0
ENDCHAR

STARTCHAR char107
ENCODING 107
SWIDTH 43 0
DWIDTH 6 0
BBX 7 9 0 0
BITMAP
40
40
40
5C
50
60
50
58
FE
ENDCHAR

STARTCHAR char108
ENCODING 108
SWIDTH 21 0
DWIDTH 3 0
BBX 3 9 0 0
BITMAP
40
40
40
40
40
40
40
40
C0
ENDCHAR

STARTCHAR char109
ENCODING 109
SWIDTH 6 0
DWIDTH 11 0
BBX 11 6 0 0
BITMAP
FF80
4880
4880
4880
4880
4CE0
ENDCHAR

STARTCHAR char110
ENCODING 110
SWIDTH 50 0
DWIDTH 7 0
BBX 7 6 0 0
BITMAP
F8
44
44
44
44
4E
ENDCHAR

STARTCHAR char111
ENCODING 111
SWIDTH 50 0
DWIDTH 7 0
BBX 6 6 0 0
BITMAP
78
C4
84
84
C4
78
ENDCHAR

STARTCHAR char112
ENCODING 112
SWIDTH 43 0
DWIDTH 6 0
BBX 6 8 0 -2
BITMAP
F8
4C
44
44
44
78
40
E0
ENDCHAR

STARTCHAR char113
ENCODING 113
SWIDTH 50 0
DWIDTH 7 0
BBX 6 8 0 -2
BITMAP
78
88
88
88
C8
78
08
0C
ENDCHAR

STARTCHAR char114
ENCODING 114
SWIDTH 28 0
DWIDTH 4 0
BBX 4 6 0 0
BITMAP
F0
40
40
40
40
F0
ENDCHAR

STARTCHAR char115
ENCODING 115
SWIDTH 35 0
DWIDTH 5 0
BBX 4 6 0 0
BITMAP
F0
90
E0
30
90
E0
ENDCHAR

STARTCHAR char116
ENCODING 116
SWIDTH 28 0
DWIDTH 4 0
BBX 4 8 0 0
BITMAP
40
40
E0
40
40
40
40
60
ENDCHAR

STARTCHAR char117
ENCODING 117
SWIDTH 50 0
DWIDTH 7 0
BBX 6 6 0 0
BITMAP
DC
44
44
44
4C
74
ENDCHAR

STARTCHAR char118
ENCODING 118
SWIDTH 43 0
DWIDTH 6 0
BBX 5 6 0 0
BITMAP
68
48
68
30
20
20
ENDCHAR

STARTCHAR char119
ENCODING 119
SWIDTH 64 0
DWIDTH 9 0
BBX 8 6 0 0
BITMAP
C9
6D
6E
36
34
24
ENDCHAR

STARTCHAR char120
ENCODING 120
SWIDTH 43 0
DWIDTH 6 0
BBX 6 6 0 0
BITMAP
4C
38
20
30
58
DC
ENDCHAR

STARTCHAR char121
ENCODING 121
SWIDTH 43 0
DWIDTH 6 0
BBX 6 8 0 -2
BITMAP
FC
68
68
28
30
20
20
C0
ENDCHAR

STARTCHAR char122
ENCODING 122
SWIDTH 43 0
DWIDTH 6 0
BBX 6 6 0 0
BITMAP
FC
98
10
20
44
FC
ENDCHAR

STARTCHAR char123
ENCODING 123
SWIDTH 28 0
DWIDTH 4 0
BBX 3 12 1 -3
BITMAP
60
40
40
40
C0
80
80
40
40
40
40
60
ENDCHAR

STARTCHAR char124
ENCODING 124
SWIDTH 21 0
DWIDTH 3 0
BBX 1 9 1 0
BITMAP
80
80
80
80
80
80
80
80
80
ENDCHAR

STARTCHAR char125
ENCODING 125
SWIDTH 28 0
DWIDTH 4 0
BBX 3 12 1 -3
BITMAP
80
40
40
40
40
20
40
40
40
40
40
C0
ENDCHAR

STARTCHAR char126
ENCODING 126
SWIDTH 0 0
DWIDTH 0 0
BBX 4 1 -2 10
BITMAP
F0
ENDCHAR

STARTCHAR char128
ENCODING 128
SWIDTH 43 0
DWIDTH 6 0
BBX 7 9 0 0
BITMAP
18
24
24
40
F8
F8
40
46
38
ENDCHAR

STARTCHAR char130
ENCODING 130
SWIDTH 21 0
DWIDTH 3 0
BBX 3 3 0 -2
BITMAP
60
20
40
ENDCHAR

STARTCHAR char131
ENCODING 131
SWIDTH 0 0
DWIDTH 0 0
BBX 4 1 -2 10
BITMAP
60
ENDCHAR

STARTCHAR char132
ENCODING 132
SWIDTH 35 0
DWIDTH 5 0
BBX 5 3 0 -2
BITMAP
D8
48
D0
ENDCHAR

STARTCHAR char133
ENCODING 133
SWIDTH 20 0
DWIDTH 13 0
BBX 9 1 2 0
BITMAP
8880
ENDCHAR

STARTCHAR char134
ENCODING 134
SWIDTH 43 0
DWIDTH 6 0
BBX 5 11 0 -2
BITMAP
20
20
F8
28
20
20
20
20
20
20
20
ENDCHAR

STARTCHAR char135
ENCODING 135
SWIDTH 13 0
DWIDTH 12 0
BBX 0 0 0 0
BITMAP
ENDCHAR

STARTCHAR char136
ENCODING 136
SWIDTH 0 0
DWIDTH 0 0
BBX 4 2 -2 7
BITMAP
60
90
ENDCHAR

STARTCHAR char137
ENCODING 137
SWIDTH 13 0
DWIDTH 12 0
BBX 0 0 0 0
BITMAP
ENDCHAR

STARTCHAR char138
ENCODING 138
SWIDTH 13 0
DWIDTH 12 0
BBX 0 0 0 0
BITMAP
ENDCHAR

STARTCHAR char139
ENCODING 139
SWIDTH 28 0
DWIDTH 4 0
BBX 2 5 1 1
BITMAP
40
40
80
40
40
ENDCHAR

STARTCHAR char140
ENCODING 140
SWIDTH 20 0
DWIDTH 13 0
BBX 12 9 0 0
BITMAP
3FE0
6210
C200
8220
83C0
8220
C200
4210
3FE0
ENDCHAR

STARTCHAR char141
ENCODING 141
SWIDTH 13 0
DWIDTH 12 0
BBX 0 0 0 0
BITMAP
ENDCHAR

STARTCHAR char143
ENCODING 143
SWIDTH 13 0
DWIDTH 12 0
BBX 0 0 0 0
BITMAP
ENDCHAR

STARTCHAR char145
ENCODING 145
SWIDTH 21 0
DWIDTH 3 0
BBX 2 3 0 6
BITMAP
40
80
C0
ENDCHAR

STARTCHAR char146
ENCODING 146
SWIDTH 21 0
DWIDTH 3 0
BBX 2 4 1 5
BITMAP
C0
40
C0
80
ENDCHAR

STARTCHAR char147
ENCODING 147
SWIDTH 35 0
DWIDTH 5 0
BBX 5 3 0 6
BITMAP
78
90
D8
ENDCHAR

STARTCHAR char148
ENCODING 148
SWIDTH 35 0
DWIDTH 5 0
BBX 5 4 0 5
BITMAP
D8
48
D8
90
ENDCHAR

STARTCHAR char149
ENCODING 149
SWIDTH 28 0
DWIDTH 4 0
BBX 3 3 1 3
BITMAP
E0
E0
E0
ENDCHAR

STARTCHAR char150
ENCODING 150
SWIDTH 43 0
DWIDTH 6 0
BBX 5 1 0 3
BITMAP
F8
ENDCHAR

STARTCHAR char151
ENCODING 151
SWIDTH 57 0
DWIDTH 8 0
BBX 8 1 0 3
BITMAP
FF
ENDCHAR

STARTCHAR char152
ENCODING 152
SWIDTH 0 0
DWIDTH 0 0
BBX 4 2 -2 7
BITMAP
F0
A0
ENDCHAR

STARTCHAR char153
ENCODING 153
SWIDTH 6 0
DWIDTH 11 0
BBX 10 6 0 3
BITMAP
F8C0
D480
4D80
4F80
4A80
6AC0
ENDCHAR

STARTCHAR char154
ENCODING 154
SWIDTH 13 0
DWIDTH 12 0
BBX 0 0 0 0
BITMAP
ENDCHAR

STARTCHAR char155
ENCODING 155
SWIDTH 28 0
DWIDTH 4 0
BBX 2 5 1 1
BITMAP
80
80
40
C0
80
ENDCHAR

STARTCHAR char156
ENCODING 156
SWIDTH 6 0
DWIDTH 11 0
BBX 10 6 0 0
BITMAP
7B80
CCC0
87C0
8400
CE40
7B80
ENDCHAR

STARTCHAR char157
ENCODING 157
SWIDTH 13 0
DWIDTH 12 0
BBX 0 0 0 0
BITMAP
ENDCHAR

STARTCHAR char159
ENCODING 159
SWIDTH 64 0
DWIDTH 9 0
BBX 9 11 0 0
BITMAP
2400
0000
F180
6200
3200
1400
1800
0800
0800
0800
3C00
ENDCHAR

STARTCHAR char160
ENCODING 160
SWIDTH 43 0
DWIDTH 6 0
BBX 0 0 0 0
BITMAP
ENDCHAR

STARTCHAR char161
ENCODING 161
SWIDTH 21 0
DWIDTH 3 0
BBX 1 9 1 0
BITMAP
80
00
00
80
80
80
80
80
80
ENDCHAR

STARTCHAR char162
ENCODING 162
SWIDTH 35 0
DWIDTH 5 0
BBX 5 9 0 -1
BITMAP
20
20
78
A8
A0
A0
E8
70
20
ENDCHAR

STARTCHAR char163
ENCODING 163
SWIDTH 43 0
DWIDTH 6 0
BBX 7 9 0 0
BITMAP
3C
24
20
20
78
20
20
E2
FC
ENDCHAR

STARTCHAR char164
ENCODING 164
SWIDTH 0 0
DWIDTH 0 0
BBX 3 1 -1 10
BITMAP
40
ENDCHAR

STARTCHAR char165
ENCODING 165
SWIDTH 0 0
DWIDTH 0 0
BBX 4 1 -2 10
BITMAP
60
ENDCHAR

STARTCHAR char166
ENCODING 166
SWIDTH 13 0
DWIDTH 12 0
BBX 0 0 0 0
BITMAP
ENDCHAR

STARTCHAR char167
ENCODING 167
SWIDTH 35 0
DWIDTH 5 0
BBX 4 11 0 -2
BITMAP
30
50
40
20
D0
90
50
30
30
50
60
ENDCHAR

STARTCHAR char168
ENCODING 168
SWIDTH 0 0
DWIDTH 0 0
BBX 4 1 -2 7
BITMAP
90
ENDCHAR

STARTCHAR char169
ENCODING 169
SWIDTH 71 0
DWIDTH 10 0
BBX 9 8 0 0
BITMAP
3E00
4100
9E80
A080
A080
A680
5900
3E00
ENDCHAR

STARTCHAR char170
ENCODING 170
SWIDTH 0 0
DWIDTH 0 0
BBX 4 1 -2 10
BITMAP
90
ENDCHAR

STARTCHAR char171
ENCODING 171
SWIDTH 43 0
DWIDTH 6 0
BBX 6 6 0 0
BITMAP
48
48
90
50
28
28
ENDCHAR

STARTCHAR char172
ENCODING 172
SWIDTH 64 0
DWIDTH 9 0
BBX 8 3 0 0
BITMAP
FF
01
01
ENDCHAR

STARTCHAR char173
ENCODING 173
SWIDTH 13 0
DWIDTH 12 0
BBX 0 0 0 0
BITMAP
ENDCHAR

STARTCHAR char174
ENCODING 174
SWIDTH 71 0
DWIDTH 10 0
BBX 9 8 0 0
BITMAP
3C00
5F00
9480
9E80
9C80
9480
7700
3E00
ENDCHAR

STARTCHAR char175
ENCODING 175
SWIDTH 13 0
DWIDTH 12 0
BBX 0 0 0 0
BITMAP
ENDCHAR

STARTCHAR char176
ENCODING 176
SWIDTH 35 0
DWIDTH 5 0
BBX 4 5 0 4
BITMAP
20
D0
90
D0
20
ENDCHAR

STARTCHAR char177
ENCODING 177
SWIDTH 50 0
DWIDTH 7 0
BBX 6 8 0 0
BITMAP
10
10
10
FC
10
10
10
FC
ENDCHAR

STARTCHAR char178
ENCODING 178
SWIDTH 13 0
DWIDTH 12 0
BBX 0 0 0 0
BITMAP
ENDCHAR

STARTCHAR char179
ENCODING 179
SWIDTH 13 0
DWIDTH 12 0
BBX 0 0 0 0
BITMAP
ENDCHAR

STARTCHAR char180
ENCODING 180
SWIDTH 0 0
DWIDTH 0 0
BBX 2 2 0 7
BITMAP
80
80
ENDCHAR

STARTCHAR char181
ENCODING 181
SWIDTH 13 0
DWIDTH 12 0
BBX 0 0 0 0
BITMAP
ENDCHAR

STARTCHAR char182
ENCODING 182
SWIDTH 64 0
DWIDTH 9 0
BBX 6 11 1 -2
BITMAP
7C
E8
E8
E8
68
28
28
28
28
28
28
ENDCHAR

STARTCHAR char183
ENCODING 183
SWIDTH 14 0
DWIDTH 2 0
BBX 1 2 1 3
BITMAP
80
80
ENDCHAR

STARTCHAR char184
ENCODING 184
SWIDTH 0 0
DWIDTH 0 0
BBX 2 3 -1 -3
BITMAP
40
40
C0
ENDCHAR

STARTCHAR char186
ENCODING 186
SWIDTH 0 0
DWIDTH 0 0
BBX 4 1 -2 10
BITMAP
F0
ENDCHAR

STARTCHAR char187
ENCODING 187
SWIDTH 43 0
DWIDTH 6 0
BBX 6 6 0 0
BITMAP
90
48
28
48
50
90
ENDCHAR

STARTCHAR char188
ENCODING 188
SWIDTH 13 0
DWIDTH 12 0
BBX 0 0 0 0
BITMAP
ENDCHAR

STARTCHAR char189
ENCODING 189
SWIDTH 13 0
DWIDTH 12 0
BBX 0 0 0 0
BITMAP
ENDCHAR

STARTCHAR char191
ENCODING 191
SWIDTH 35 0
DWIDTH 5 0
BBX 4 9 0 0
BITMAP
20
00
20
20
40
C0
90
90
60
ENDCHAR

STARTCHAR char192
ENCODING 192
SWIDTH 64 0
DWIDTH 9 0
BBX 7 11 1 0
BITMAP
30
00
10
10
38
28
28
7C
4C
46
86
ENDCHAR

STARTCHAR char193
ENCODING 193
SWIDTH 64 0
DWIDTH 9 0
BBX 7 11 1 0
BITMAP
10
00
10
10
38
28
28
7C
4C
46
86
ENDCHAR

STARTCHAR char194
ENCODING 194
SWIDTH 64 0
DWIDTH 9 0
BBX 7 11 1 0
BITMAP
38
00
10
10
38
28
28
7C
4C
46
86
ENDCHAR

STARTCHAR char195
ENCODING 195
SWIDTH 64 0
DWIDTH 9 0
BBX 7 11 1 0
BITMAP
38
00
10
10
38
28
28
7C
4C
46
86
ENDCHAR

STARTCHAR char196
ENCODING 196
SWIDTH 64 0
DWIDTH 9 0
BBX 8 11 0 0
BITMAP
24
00
08
08
18
14
24
3C
42
43
C7
ENDCHAR

STARTCHAR char197
ENCODING 197
SWIDTH 64 0
DWIDTH 9 0
BBX 7 12 1 0
BITMAP
38
28
38
10
10
38
28
28
7C
44
86
86
ENDCHAR

STARTCHAR char198
ENCODING 198
SWIDTH 13 0
DWIDTH 12 0
BBX 12 9 0 0
BITMAP
0FE0
0C20
0C00
1440
17C0
3C40
2400
2410
CFE0
ENDCHAR

STARTCHAR char199
ENCODING 199
SWIDTH 64 0
DWIDTH 9 0
BBX 7 12 1 -3
BITMAP
3E
42
42
80
80
80
80
42
3C
10
10
30
ENDCHAR

STARTCHAR char200
ENCODING 200
SWIDTH 57 0
DWIDTH 8 0
BBX 8 11 0 0
BITMAP
10
00
FE
62
60
64
7C
44
40
41
FE
ENDCHAR

STARTCHAR char201
ENCODING 201
SWIDTH 57 0
DWIDTH 8 0
BBX 8 11 0 0
BITMAP
10
00
FE
62
60
64
7C
44
40
41
FE
ENDCHAR

STARTCHAR char202
ENCODING 202
SWIDTH 57 0
DWIDTH 8 0
BBX 8 11 0 0
BITMAP
38
00
FE
62
60
64
7C
44
40
41
FE
ENDCHAR

STARTCHAR char203
ENCODING 203
SWIDTH 57 0
DWIDTH 8 0
BBX 8 11 0 0
BITMAP
64
00
FE
62
60
62
7C
42
40
41
FE
ENDCHAR

STARTCHAR char204
ENCODING 204
SWIDTH 28 0
DWIDTH 4 0
BBX 4 11 0 0
BITMAP
60
00
F0
20
20
20
20
20
20
20
E0
ENDCHAR

STARTCHAR char205
ENCODING 205
SWIDTH 28 0
DWIDTH 4 0
BBX 4 11 0 0
BITMAP
20
00
F0
20
20
20
20
20
20
20
E0
ENDCHAR

STARTCHAR char206
ENCODING 206
SWIDTH 28 0
DWIDTH 4 0
BBX 4 11 0 0
BITMAP
60
00
F0
20
20
20
20
20
20
20
E0
ENDCHAR

STARTCHAR char207
ENCODING 207
SWIDTH 28 0
DWIDTH 4 0
BBX 4 11 0 0
BITMAP
90
00
F0
20
20
20
20
20
20
20
E0
ENDCHAR

STARTCHAR char208
ENCODING 208
SWIDTH 13 0
DWIDTH 12 0
BBX 0 0 0 0
BITMAP
ENDCHAR

STARTCHAR char209
ENCODING 209
SWIDTH 71 0
DWIDTH 10 0
BBX 9 11 0 0
BITMAP
1C00
0000
C380
6100
7100
5900
4D00
4500
4300
4300
C100
ENDCHAR

STARTCHAR char210
ENCODING 210
SWIDTH 64 0
DWIDTH 9 0
BBX 7 11 1 0
BITMAP
30
00
38
44
82
82
82
82
82
44
38
ENDCHAR

STARTCHAR char211
ENCODING 211
SWIDTH 64 0
DWIDTH 9 0
BBX 7 11 1 0
BITMAP
10
00
38
44
82
82
82
82
82
44
38
ENDCHAR

STARTCHAR char212
ENCODING 212
SWIDTH 64 0
DWIDTH 9 0
BBX 7 11 1 0
BITMAP
38
00
38
44
82
82
82
82
82
44
38
ENDCHAR

STARTCHAR char213
ENCODING 213
SWIDTH 64 0
DWIDTH 9 0
BBX 8 11 0 0
BITMAP
1C
00
3C
62
C1
81
81
81
C1
62
3C
ENDCHAR

STARTCHAR char214
ENCODING 214
SWIDTH 64 0
DWIDTH 9 0
BBX 7 11 1 0
BITMAP
48
00
38
C4
82
82
82
82
82
C4
38
ENDCHAR

STARTCHAR char215
ENCODING 215
SWIDTH 13 0
DWIDTH 12 0
BBX 0 0 0 0
BITMAP
ENDCHAR

STARTCHAR char216
ENCODING 216
SWIDTH 64 0
DWIDTH 9 0
BBX 7 9 1 0
BITMAP
3A
44
8A
8A
92
A2
C2
44
B8
ENDCHAR

STARTCHAR char217
ENCODING 217
SWIDTH 71 0
DWIDTH 10 0
BBX 9 11 0 0
BITMAP
1800
0000
F380
4100
4100
4100
4100
4100
4100
6100
3E00
ENDCHAR

STARTCHAR char218
ENCODING 218
SWIDTH 71 0
DWIDTH 10 0
BBX 9 11 0 0
BITMAP
0800
0000
F380
4100
4100
4100
4100
4100
4100
6100
3E00
ENDCHAR

STARTCHAR char219
ENCODING 219
SWIDTH 71 0
DWIDTH 10 0
BBX 9 11 0 0
BITMAP
1C00
0000
F380
4100
4100
4100
4100
4100
4100
6100
3E00
ENDCHAR

STARTCHAR char220
ENCODING 220
SWIDTH 71 0
DWIDTH 10 0
BBX 9 11 0 0
BITMAP
1200
0000
F180
4100
4100
4100
4100
4100
4100
6100
3E00
ENDCHAR

STARTCHAR char221
ENCODING 221
SWIDTH 13 0
DWIDTH 12 0
BBX 0 0 0 0
BITMAP
ENDCHAR

STARTCHAR char222
ENCODING 222
SWIDTH 13 0
DWIDTH 12 0
BBX 0 0 0 0
BITMAP
ENDCHAR

STARTCHAR char223
ENCODING 223
SWIDTH 50 0
DWIDTH 7 0
BBX 6 9 0 0
BITMAP
30
48
48
48
48
4C
4C
58
D8
ENDCHAR

STARTCHAR char224
ENCODING 224
SWIDTH 43 0
DWIDTH 6 0
BBX 6 9 0 0
BITMAP
40
20
00
70
D0
10
70
90
F8
ENDCHAR

STARTCHAR char225
ENCODING 225
SWIDTH 43 0
DWIDTH 6 0
BBX 6 9 0 0
BITMAP
20
20
00
70
D0
10
70
90
F8
ENDCHAR

STARTCHAR char226
ENCODING 226
SWIDTH 43 0
DWIDTH 6 0
BBX 6 9 0 0
BITMAP
20
50
00
70
D0
10
70
90
F8
ENDCHAR

STARTCHAR char227
ENCODING 227
SWIDTH 43 0
DWIDTH 6 0
BBX 6 9 0 0
BITMAP
70
90
00
70
D0
10
70
90
F8
ENDCHAR

STARTCHAR char228
ENCODING 228
SWIDTH 43 0
DWIDTH 6 0
BBX 6 8 0 0
BITMAP
58
00
70
D0
10
70
90
F8
ENDCHAR

STARTCHAR char229
ENCODING 229
SWIDTH 43 0
DWIDTH 6 0
BBX 6 9 0 0
BITMAP
60
50
60
70
D0
10
70
90
F8
ENDCHAR

STARTCHAR char230
ENCODING 230
SWIDTH 64 0
DWIDTH 9 0
BBX 9 6 0 0
BITMAP
3F00
5B00
7E00
5000
D980
6E00
ENDCHAR

STARTCHAR char231
ENCODING 231
SWIDTH 35 0
DWIDTH 5 0
BBX 5 9 0 -3
BITMAP
70
88
80
80
C8
70
20
20
60
ENDCHAR

STARTCHAR char232
ENCODING 232
SWIDTH 43 0
DWIDTH 6 0
BBX 6 9 0 0
BITMAP
60
20
00
70
88
F8
80
CC
70
ENDCHAR

STARTCHAR char233
ENCODING 233
SWIDTH 43 0
DWIDTH 6 0
BBX 6 9 0 0
BITMAP
10
20
00
70
88
F8
80
CC
70
ENDCHAR

STARTCHAR char234
ENCODING 234
SWIDTH 43 0
DWIDTH 6 0
BBX 6 9 0 0
BITMAP
30
50
00
70
88
F8
80
CC
70
ENDCHAR

STARTCHAR char235
ENCODING 235
SWIDTH 43 0
DWIDTH 6 0
BBX 5 8 0 0
BITMAP
50
00
30
48
F8
80
48
30
ENDCHAR

STARTCHAR char236
ENCODING 236
SWIDTH 21 0
DWIDTH 3 0
BBX 3 9 0 0
BITMAP
80
80
00
40
40
40
40
40
E0
ENDCHAR

STARTCHAR char237
ENCODING 237
SWIDTH 21 0
DWIDTH 3 0
BBX 3 9 0 0
BITMAP
60
40
00
C0
40
40
40
40
E0
ENDCHAR

STARTCHAR char238
ENCODING 238
SWIDTH 21 0
DWIDTH 3 0
BBX 3 9 0 0
BITMAP
C0
A0
00
C0
40
40
40
40
E0
ENDCHAR

STARTCHAR char239
ENCODING 239
SWIDTH 21 0
DWIDTH 3 0
BBX 3 8 0 0
BITMAP
A0
00
40
40
40
40
40
60
ENDCHAR

STARTCHAR char241
ENCODING 241
SWIDTH 50 0
DWIDTH 7 0
BBX 7 9 0 0
BITMAP
38
50
00
78
44
44
44
44
4E
ENDCHAR

STARTCHAR char242
ENCODING 242
SWIDTH 50 0
DWIDTH 7 0
BBX 6 9 0 0
BITMAP
60
20
00
78
C4
84
84
C4
78
ENDCHAR

STARTCHAR char243
ENCODING 243
SWIDTH 50 0
DWIDTH 7 0
BBX 6 9 0 0
BITMAP
10
10
00
78
C4
84
84
C4
78
ENDCHAR

STARTCHAR char244
ENCODING 244
SWIDTH 50 0
DWIDTH 7 0
BBX 6 9 0 0
BITMAP
30
48
00
78
C4
84
84
C4
78
ENDCHAR

STARTCHAR char245
ENCODING 245
SWIDTH 50 0
DWIDTH 7 0
BBX 6 9 0 0
BITMAP
78
50
00
78
C4
84
84
C4
78
ENDCHAR

STARTCHAR char246
ENCODING 246
SWIDTH 50 0
DWIDTH 7 0
BBX 6 8 0 0
BITMAP
48
00
78
84
84
84
C4
38
ENDCHAR

STARTCHAR char247
ENCODING 247
SWIDTH 50 0
DWIDTH 7 0
BBX 6 4 0 1
BITMAP
10
FC
00
10
ENDCHAR

STARTCHAR char248
ENCODING 248
SWIDTH 50 0
DWIDTH 7 0
BBX 6 7 0 0
BITMAP
08
78
D4
94
A4
E4
78
ENDCHAR

STARTCHAR char249
ENCODING 249
SWIDTH 50 0
DWIDTH 7 0
BBX 6 9 0 0
BITMAP
20
20
00
DC
44
44
44
4C
74
ENDCHAR

STARTCHAR char250
ENCODING 250
SWIDTH 50 0
DWIDTH 7 0
BBX 6 9 0 0
BITMAP
18
10
00
DC
44
44
44
4C
74
ENDCHAR

STARTCHAR char251
ENCODING 251
SWIDTH 50 0
DWIDTH 7 0
BBX 6 9 0 0
BITMAP
30
28
00
DC
44
44
44
4C
74
ENDCHAR

STARTCHAR char252
ENCODING 252
SWIDTH 50 0
DWIDTH 7 0
BBX 6 8 0 0
BITMAP
48
00
D8
44
44
44
4C
74
ENDCHAR

STARTCHAR char255
ENCODING 255
SWIDTH 43 0
DWIDTH 6 0
BBX 6 10 0 -2
BITMAP
50
00
FC
48
28
30
20
20
20
C0
ENDCHAR
ENDFONT
